<svg width="230" height="178" viewBox="0 0 230 178" fill="none" xmlns="http://www.w3.org/2000/svg">
<g clip-path="url(#clip0_119_1316)">
<path d="M102.166 40.4748C92.6992 40.4822 83.2979 38.9044 74.3522 35.8071C62.3596 31.6616 52.535 25.9438 45.1514 18.8123C31.1845 5.32223 19.7338 3.28922 12.5887 3.95864C4.85428 4.68363 0.352233 8.64326 0.307684 8.68318L0 8.34026C0.0454479 8.29944 4.64031 4.24994 12.5158 3.5028C17.1342 3.06496 21.9639 3.82784 26.871 5.77099C32.9905 8.19416 39.2486 12.4704 45.4715 18.4809C52.8065 25.5655 62.5741 31.2484 74.5028 35.3716C96.4013 42.9409 121.082 41.1083 142.216 30.3435C149.213 26.7791 156.129 24.3461 162.771 23.1122C171.147 21.5559 179.09 21.9171 186.382 24.1852C202.406 29.1691 213.351 28.9048 219.711 27.806C226.573 26.6202 229.686 24.2471 229.717 24.2232L230 24.5868C229.871 24.687 226.764 27.0547 219.789 28.2599C213.379 29.3677 202.356 29.6361 186.245 24.625C169.933 19.5519 153.412 25.1575 142.425 30.7538C131.979 36.1028 120.573 39.3198 108.871 40.2173C106.628 40.3889 104.393 40.4748 102.166 40.4748Z" fill="#3F3D56"/>
<path d="M101.236 46.1912C103.815 46.1912 105.906 44.101 105.906 41.5227C105.906 38.9444 103.815 36.8542 101.236 36.8542C98.6571 36.8542 96.5664 38.9444 96.5664 41.5227C96.5664 44.101 98.6571 46.1912 101.236 46.1912Z" fill="#6C63FF"/>
<path d="M173.58 27.5337C176.159 27.5337 178.249 25.4435 178.249 22.8652C178.249 20.2869 176.159 18.1968 173.58 18.1968C171.001 18.1968 168.91 20.2869 168.91 22.8652C168.91 25.4435 171.001 27.5337 173.58 27.5337Z" fill="#6C63FF"/>
<path d="M23.1315 9.3369C25.7105 9.3369 27.8011 7.24677 27.8011 4.66845C27.8011 2.09014 25.7105 0 23.1315 0C20.5526 0 18.4619 2.09014 18.4619 4.66845C18.4619 7.24677 20.5526 9.3369 23.1315 9.3369Z" fill="#6C63FF"/>
<path d="M134.723 111.595V156.702H141.817V115.567H170.193V156.702H177.287V66.4886H170.193C167.842 66.4886 164.234 78.7286 164.234 91.0278C164.234 100.298 165.317 108.243 166.856 111.595H134.723ZM170.193 111.595H170.124C170.147 111.545 170.17 111.492 170.193 111.439V111.595Z" fill="#3F3D56"/>
<path d="M161.011 44.1626C155.188 44.1626 150.468 49.4 150.468 55.8607V64.069H152.993L154.455 61.0277L154.089 64.069H170.32L171.649 61.3042L171.317 64.069H173.144V57.624C173.144 50.1895 167.712 44.1626 161.011 44.1626Z" fill="#2F2E41"/>
<path d="M148.93 97.7915L142.456 100.542L119.961 118.826C119.133 119.842 118.626 121.081 118.504 122.385C118.342 124.489 111.545 135.491 113.973 136.947C116.4 138.403 125.139 142.772 125.625 139.86C126.111 136.947 128.7 124.489 128.7 124.489L150.387 105.073L148.93 97.7915Z" fill="#2F2E41"/>
<path d="M123.521 137.433L120.77 145.523C120.77 145.523 123.683 148.597 122.226 151.186V160.085H119.961L119.313 155.392C119.313 155.392 116.733 160.025 115.429 160.085C112.697 160.209 107.285 161.181 107.124 159.724C106.962 158.268 111.221 156.849 111.221 156.849L115.753 144.39L117.695 136.785L123.521 137.433Z" fill="#2F2E41"/>
<path d="M165.761 95.6881C165.761 95.6881 167.217 109.926 163.01 112.515C158.802 115.104 140.19 123.356 140.19 123.356C140.19 123.356 148.12 130.799 146.502 132.579C144.884 134.358 137.601 139.212 136.63 138.242C135.659 137.271 124.815 125.621 126.11 121.9C127.405 118.178 145.369 106.043 145.369 106.043L147.473 98.4387L148.12 92.2902L154.918 87.9216L165.761 95.6881Z" fill="#2F2E41"/>
<path d="M158.346 62.5374C162.073 62.5374 165.093 59.5174 165.093 55.7922C165.093 52.0669 162.073 49.047 158.346 49.047C154.62 49.047 151.6 52.0669 151.6 55.7922C151.6 59.5174 154.62 62.5374 158.346 62.5374Z" fill="#FFB9B9"/>
<path d="M163.577 58.5549C163.577 58.5549 163.253 64.7033 168.27 66.645C173.287 68.5866 155.809 81.207 155.809 81.207V67.1303C155.809 67.1303 158.074 64.7033 155.809 60.9819L163.577 58.5549Z" fill="#FFB9B9"/>
<path d="M174.339 87.4363L173.044 93.7465L169.16 115.428C169.16 115.428 172.397 124.65 168.027 124.489C163.657 124.327 165.761 114.457 165.761 114.457L168.027 96.4971V89.5397L174.339 87.4363Z" fill="#FFB9B9"/>
<path d="M146.503 84.3621L145.046 90.0251L138.411 106.043C138.411 106.043 133.879 113.648 137.602 113.486C141.324 113.324 141.324 106.043 141.324 106.043L148.93 93.0993V85.8183L146.503 84.3621Z" fill="#FFB9B9"/>
<path d="M145.369 131.608L150.71 136.623C150.71 136.623 154.432 135.814 155.889 140.183C157.345 144.552 158.317 147.302 158.317 147.302L156.374 148.435L153.947 145.037C153.947 145.037 152.49 151.186 151.034 151.671C149.577 152.156 142.294 155.392 142.942 151.671L146.502 146.493C146.502 146.493 146.988 140.668 145.531 140.183C144.075 139.698 140.19 134.844 140.19 134.844L145.369 131.608Z" fill="#2F2E41"/>
<path d="M166.018 100.704C166.018 100.704 150.805 95.2028 149.834 95.6882C149.111 96.0074 148.342 96.2072 147.555 96.2797L147.568 94.0702C147.568 94.0702 152.586 92.2904 155.337 93.423C158.088 94.5556 166.504 99.5714 166.504 99.5714L166.018 100.704Z" fill="#3F3D56"/>
<path d="M156.779 77.9709C156.779 77.9709 161.149 72.9551 162.444 69.8809C163.263 68.0172 164.767 66.5391 166.644 65.7516C166.644 65.7516 176.362 67.9393 176.2 71.8225C176.038 75.7057 170.05 81.6923 170.05 81.6923C170.05 81.6923 170.86 103.212 166.49 102.888C165.547 101.764 164.882 100.434 164.548 99.005C164.062 96.7398 149.011 94.3128 149.011 94.3128C149.011 94.3128 147.716 96.578 147.555 95.6072C147.393 94.6364 148.849 70.8517 148.849 70.8517L156.567 65.7516L156.779 77.9709Z" fill="#D0CDE1"/>
<path d="M174.953 70.2595L175.061 70.3203C175.407 70.5143 175.695 70.797 175.896 71.1392C176.096 71.4814 176.201 71.8707 176.201 72.2673L176.2 84.2749C176.201 84.6013 176.273 84.9235 176.411 85.2192C176.55 85.5149 176.751 85.777 177 85.9873C177.624 86.5174 178.202 87.2814 177.009 87.679C175.067 88.3262 167.46 91.5622 167.298 90.4296C167.137 89.297 166.813 88.0026 167.298 88.0026C167.679 88.0026 169.943 76.4001 171.763 71.4394C171.874 71.1357 172.05 70.8597 172.278 70.6307C172.507 70.4016 172.782 70.2248 173.085 70.1126C173.389 70.0004 173.713 69.9554 174.035 69.9808C174.358 70.0061 174.671 70.1012 174.953 70.2595Z" fill="#D0CDE1"/>
<path d="M151.033 70.2854L148.768 70.9326L146.178 82.0968C146.178 82.0968 143.103 82.744 144.074 83.8766C145.045 85.0092 149.091 87.9216 149.091 87.9216L151.033 70.2854Z" fill="#D0CDE1"/>
<path d="M164.008 47.385C163.501 46.7038 162.844 46.1487 162.087 45.7627C161.33 45.3767 160.495 45.1701 159.645 45.1591H159.438C155.447 45.1591 152.212 48.7697 152.212 53.2236L153.549 53.2236L153.765 51.5801L154.082 53.2236H162.013L162.678 51.8331L162.512 53.2236H164.072C164.8 56.8387 163.754 60.4538 160.934 64.0689H163.592L164.921 61.2881L164.588 64.0689H169.655L170.652 57.6729C170.652 52.8829 167.868 48.8211 164.008 47.385Z" fill="#2F2E41"/>
<path d="M28.4619 122.017C30.1645 118.311 31.3619 109.527 31.3619 99.2764C31.3619 85.6776 27.3724 72.1443 24.7733 72.1443H16.9297V171.89H24.7733V126.409H56.1476V171.89H63.9911V122.017H28.4619ZM24.7733 121.844C24.7986 121.903 24.8239 121.961 24.8495 122.017H24.7733V121.844Z" fill="#3F3D56"/>
<path d="M61.1552 103.82C61.1552 103.82 70.6014 107.736 67.6062 110.039C64.6111 112.343 58.3904 107.275 58.6208 106.584C58.8512 105.893 57.6992 104.281 57.6992 104.281L61.1552 103.82Z" fill="#9F616A"/>
<path d="M52.86 72.955L55.8551 75.719L56.5463 83.7809L58.8503 92.3035C58.8503 92.3035 62.767 100.365 62.0758 101.978C61.3846 103.59 62.767 104.051 62.767 104.051L57.4679 106.124C57.4679 106.124 51.708 99.6743 51.708 98.2923C51.708 96.9102 52.86 72.955 52.86 72.955Z" fill="#575A88"/>
<path opacity="0.1" d="M52.86 72.955L55.8551 75.719L56.5463 83.7809L58.8503 92.3035C58.8503 92.3035 62.767 100.365 62.0758 101.978C61.3846 103.59 62.767 104.051 62.767 104.051L57.4679 106.124C57.4679 106.124 51.708 99.6743 51.708 98.2923C51.708 96.9102 52.86 72.955 52.86 72.955Z" fill="black"/>
<path d="M81.1993 155.877C81.1993 155.877 80.0474 161.175 79.817 161.635C79.5866 162.096 84.1945 163.709 84.1945 163.709L89.724 159.793C89.724 159.793 87.42 154.725 87.42 153.804L81.1993 155.877Z" fill="#575A88"/>
<path d="M51.0177 104.281L52.6304 106.124C52.6304 106.124 86.0378 110.27 86.729 116.719C87.4202 123.169 92.2585 153.574 89.4937 154.495C86.729 155.416 79.5867 158.871 79.5867 157.029C79.5867 155.186 74.9788 129.849 75.9004 125.242C75.9004 125.242 36.0419 120.174 35.1203 114.416C34.1988 108.657 36.0419 106.124 36.0419 106.124L51.0177 104.281Z" fill="#2F2E41"/>
<path opacity="0.1" d="M51.0177 104.281L52.6304 106.124C52.6304 106.124 86.0378 110.27 86.729 116.719C87.4202 123.169 92.2585 153.574 89.4937 154.495C86.729 155.416 79.5867 158.871 79.5867 157.029C79.5867 155.186 74.9788 129.849 75.9004 125.242C75.9004 125.242 36.0419 120.174 35.1203 114.416C34.1988 108.657 36.0419 106.124 36.0419 106.124L51.0177 104.281Z" fill="black"/>
<path d="M80.7383 161.175C80.7383 161.175 79.8167 159.102 79.3559 159.793C78.8952 160.484 77.2824 168.546 78.8952 168.546C80.5079 168.546 95.2533 172.231 97.3268 171.771C99.4004 171.31 103.317 172.001 102.856 169.697C102.396 167.394 100.092 167.164 100.092 167.164C100.092 167.164 91.5669 162.096 91.1061 159.563C90.6453 157.029 88.111 158.411 88.111 158.411V160.023C88.111 160.023 83.2727 163.709 80.7383 161.175Z" fill="#2F2E41"/>
<path d="M36.9628 55.4491C36.9628 55.4491 38.5756 63.2807 35.1197 63.9717C31.6637 64.6627 39.4972 69.2695 39.4972 69.2695L44.5659 72.0336L48.2522 68.3481C48.2522 68.3481 44.9115 61.5531 47.4458 56.4857C49.9802 51.4182 36.9628 55.4491 36.9628 55.4491Z" fill="#9F616A"/>
<path d="M48.2522 68.3481L44.5659 72.0336L39.4972 69.2695C39.4972 69.2695 31.6637 64.6627 35.1197 63.9717C37.343 63.5271 37.4674 60.1273 37.2762 57.7594C37.2138 56.9842 37.1092 56.213 36.9628 55.4491C36.9628 55.4491 49.9802 51.4182 47.4458 56.4857C47.0608 57.2682 46.7937 58.1034 46.6533 58.9641C45.8768 63.5179 48.2522 68.3481 48.2522 68.3481Z" fill="#9F616A"/>
<path d="M61.1543 162.557V167.855H69.9093L70.6005 165.782L69.6789 160.253L61.1543 162.557Z" fill="#575A88"/>
<path d="M24.9824 108.888C24.9824 108.888 24.9824 122.478 30.5119 122.939C36.0414 123.399 55.8555 125.933 55.8555 125.933C55.8555 125.933 57.0074 148.506 59.081 155.877C61.1546 163.248 59.3114 163.709 61.1546 164.169C62.9977 164.63 70.8312 163.018 70.6008 161.405C70.3704 159.793 69.4488 119.023 69.4488 119.023C69.4488 119.023 71.5224 110.27 43.8749 106.124L24.9824 108.888Z" fill="#2F2E41"/>
<path d="M61.8458 166.242C61.8458 166.242 60.4634 163.248 60.233 164.169C60.0026 165.091 57.2379 173.152 60.0026 173.843C62.7674 174.534 71.5224 178.22 77.2823 177.99C83.0422 177.759 83.7334 177.529 83.7334 177.529C83.7334 177.529 85.3462 175.225 83.2726 173.843C81.1991 172.461 72.6744 164.4 72.2136 163.478C71.7528 162.557 68.2969 161.866 68.2969 163.478C68.2969 165.091 63.4586 168.315 61.8458 166.242Z" fill="#2F2E41"/>
<path opacity="0.1" d="M47.4459 56.4857C47.0608 57.2682 46.7937 58.1034 46.6533 58.9641C45.506 59.6574 44.7387 59.4801 43.2988 59.4801C41.163 59.4801 40.3013 56.7506 38.9213 55.334C38.813 54.0187 36.9629 55.4491 36.9629 55.4491C36.9629 55.4491 49.9803 51.4182 47.4459 56.4857Z" fill="black"/>
<path d="M42.7232 59.365C46.9222 59.365 50.3262 55.9618 50.3262 51.7638C50.3262 47.5658 46.9222 44.1626 42.7232 44.1626C38.5241 44.1626 35.1201 47.5658 35.1201 51.7638C35.1201 55.9618 38.5241 59.365 42.7232 59.365Z" fill="#9F616A"/>
<path d="M55.8552 75.719C55.8552 75.719 54.7032 84.0113 54.012 87.0057C53.3209 90.0001 52.3993 103.82 51.9385 105.663C51.4777 107.506 48.7129 107.967 43.1834 107.276C42.8363 107.232 42.4872 107.206 42.1374 107.197C38.7322 107.089 34.8362 108.363 31.2305 109.362C29.157 109.938 27.1778 110.422 25.443 110.5C22.8165 110.62 22.0469 107.709 22.1368 104.558C22.222 101.625 23.0538 98.4812 23.8302 97.3709C25.2287 95.3716 23.8532 77.4212 24.3693 71.5015V71.4992C24.4476 70.5963 24.5698 69.9744 24.7518 69.7302C26.1342 67.8875 35.1196 63.2807 36.1264 63.4673C37.1309 63.6539 45.7178 69.0392 45.7178 69.0392C47.7914 69.0392 47.7245 66.7911 47.7245 66.7911C47.7245 66.7911 49.1737 69.4999 51.9385 70.1909C54.7032 70.8819 55.8552 75.719 55.8552 75.719Z" fill="#575A88"/>
<path d="M40.4538 105.581C40.4538 105.581 55.295 106.053 52.6951 107.816C50.0953 109.579 38.5755 111.191 38.3451 108.888C38.1147 106.584 40.4538 105.581 40.4538 105.581Z" fill="#9F616A"/>
<path opacity="0.1" d="M42.1374 107.197C42.1858 108.082 39.8058 110.074 39.0362 111.422C38.61 112.168 35.3108 111.184 31.2304 109.362C28.0993 107.957 25.0618 106.352 22.1367 104.557C22.222 101.625 23.0537 98.4811 23.8301 97.3709C25.2286 95.3715 23.8532 77.4212 24.3693 71.5015V71.4992C24.4923 71.4367 24.6202 71.3843 24.7517 71.3425H27.5165C36.9627 75.719 26.1341 94.6068 26.1341 94.6068C26.1341 94.6068 40.4186 106.354 41.801 106.815C41.8917 106.832 41.974 106.879 42.0349 106.948C42.0959 107.017 42.1319 107.105 42.1374 107.197Z" fill="black"/>
<path d="M27.5173 69.9606H24.7526C24.7526 69.9606 22.2182 70.6516 20.1447 75.2584C18.0711 79.8652 10.468 94.1462 17.1495 99.6743C23.831 105.202 38.1155 111.652 39.0371 110.04C39.9587 108.427 43.1842 105.893 41.8019 105.433C40.4195 104.972 26.135 93.2248 26.135 93.2248C26.135 93.2248 36.9636 74.337 27.5173 69.9606Z" fill="#575A88"/>
<path d="M41.5536 48.2268C41.5536 48.2268 41.8873 43.609 46.0035 45.4919C50.1196 47.3747 49.851 42.185 48.6072 41.2679C47.3633 40.3508 47.4027 40.1238 42.8533 40.7374C38.3039 41.351 29.4715 42.3906 32.3274 51.5359C35.1833 60.6811 37.7698 58.3285 37.7698 58.3285C37.7698 58.3285 35.4997 50.099 37.7999 51.6668L40.1 53.2347L41.3138 52.9776L41.5536 48.2268Z" fill="#2F2E41"/>
<path d="M211.397 114.72C211.397 110.562 180.494 107.192 142.373 107.192C104.252 107.192 73.3496 110.562 73.3496 114.72C73.3496 116.331 77.9942 117.824 85.8993 119.048V170.552H89.6642V119.579C102.325 121.211 121.238 122.248 142.373 122.248C163.683 122.248 182.734 121.194 195.396 119.539V170.552H199.161V118.999C206.874 117.784 211.397 116.309 211.397 114.72Z" fill="#3F3D56"/>
<path d="M151.02 114.877C158.782 114.877 165.074 113.33 165.074 111.422C165.074 109.513 158.782 107.967 151.02 107.967C143.258 107.967 136.966 109.513 136.966 111.422C136.966 113.33 143.258 114.877 151.02 114.877Z" fill="#F2F2F2"/>
<path d="M151.02 114.254C157.382 114.254 162.54 112.986 162.54 111.422C162.54 109.858 157.382 108.59 151.02 108.59C144.658 108.59 139.5 109.858 139.5 111.422C139.5 112.986 144.658 114.254 151.02 114.254Z" fill="#D0CDE1"/>
<path d="M98.7202 117.641C106.482 117.641 112.774 116.094 112.774 114.186C112.774 112.278 106.482 110.731 98.7202 110.731C90.9583 110.731 84.666 112.278 84.666 114.186C84.666 116.094 90.9583 117.641 98.7202 117.641Z" fill="#F2F2F2"/>
<path d="M98.72 117.018C105.082 117.018 110.24 115.75 110.24 114.186C110.24 112.622 105.082 111.354 98.72 111.354C92.3578 111.354 87.2002 112.622 87.2002 114.186C87.2002 115.75 92.3578 117.018 98.72 117.018Z" fill="#D0CDE1"/>
<path d="M150.693 111.178C154.393 111.178 157.393 110.704 157.393 110.12C157.393 109.536 154.393 109.062 150.693 109.062C146.993 109.062 143.993 109.536 143.993 110.12C143.993 110.704 146.993 111.178 150.693 111.178Z" fill="#9F616A"/>
<path d="M147.123 109.723C148.291 109.723 149.238 109.21 149.238 108.578C149.238 107.945 148.291 107.432 147.123 107.432C145.954 107.432 145.007 107.945 145.007 108.578C145.007 109.21 145.954 109.723 147.123 109.723Z" fill="#6C63FF"/>
<path d="M146.33 109.723C147.498 109.723 148.445 109.21 148.445 108.578C148.445 107.945 147.498 107.432 146.33 107.432C145.161 107.432 144.214 107.945 144.214 108.578C144.214 109.21 145.161 109.723 146.33 109.723Z" fill="#6C63FF"/>
<path d="M155.586 109.988C156.754 109.988 157.701 109.475 157.701 108.842C157.701 108.209 156.754 107.696 155.586 107.696C154.417 107.696 153.47 108.209 153.47 108.842C153.47 109.475 154.417 109.988 155.586 109.988Z" fill="#6C63FF"/>
<path d="M150.737 109.723C151.905 109.723 152.853 109.21 152.853 108.578C152.853 107.945 151.905 107.432 150.737 107.432C149.568 107.432 148.621 107.945 148.621 108.578C148.621 109.21 149.568 109.723 150.737 109.723Z" fill="#6C63FF"/>
<path d="M154.351 109.723C155.52 109.723 156.467 109.21 156.467 108.578C156.467 107.945 155.52 107.432 154.351 107.432C153.183 107.432 152.235 107.945 152.235 108.578C152.235 109.21 153.183 109.723 154.351 109.723Z" fill="#6C63FF"/>
<path d="M157.084 107.873C153.26 109.17 148.97 109.17 144.213 107.873V107.694C144.212 106.345 144.73 105.048 145.659 104.07C146.588 103.093 147.858 102.509 149.205 102.441C150.339 102.384 151.476 102.386 152.609 102.446C153.822 102.516 154.961 103.048 155.793 103.932C156.625 104.816 157.087 105.985 157.084 107.199V107.873Z" fill="#3F3D56"/>
<path d="M155.207 112.73C152.382 113.015 149.534 113.015 146.708 112.73C146.038 112.664 145.416 112.351 144.963 111.853C144.51 111.354 144.259 110.705 144.258 110.032H157.658C157.657 110.705 157.405 111.354 156.953 111.853C156.5 112.351 155.878 112.664 155.207 112.73Z" fill="#3F3D56"/>
<path d="M148.886 104.083C148.578 104.211 148.249 104.276 147.916 104.276C147.583 104.276 147.254 104.211 146.946 104.083C147.254 103.955 147.583 103.889 147.916 103.889C148.249 103.889 148.578 103.955 148.886 104.083Z" fill="#D0CDE1"/>
<path d="M150.825 104.876C150.518 105.004 150.188 105.07 149.855 105.07C149.523 105.07 149.193 105.004 148.886 104.876C149.193 104.748 149.523 104.682 149.855 104.682C150.188 104.682 150.518 104.748 150.825 104.876Z" fill="#D0CDE1"/>
<path d="M151.002 103.466C150.695 103.594 150.365 103.66 150.032 103.66C149.699 103.66 149.37 103.594 149.062 103.466C149.37 103.338 149.699 103.272 150.032 103.272C150.365 103.272 150.695 103.338 151.002 103.466Z" fill="#D0CDE1"/>
<path d="M154.616 103.466C154.309 103.594 153.979 103.66 153.647 103.66C153.314 103.66 152.984 103.594 152.677 103.466C152.984 103.338 153.314 103.272 153.647 103.272C153.979 103.272 154.309 103.338 154.616 103.466Z" fill="#D0CDE1"/>
<path d="M153.647 104.259C153.339 104.387 153.01 104.453 152.677 104.453C152.344 104.453 152.014 104.387 151.707 104.259C152.014 104.131 152.344 104.065 152.677 104.065C153.01 104.065 153.339 104.131 153.647 104.259Z" fill="#D0CDE1"/>
<path d="M98.6238 113.942C102.324 113.942 105.324 113.468 105.324 112.884C105.324 112.3 102.324 111.826 98.6238 111.826C94.9235 111.826 91.9238 112.3 91.9238 112.884C91.9238 113.468 94.9235 113.942 98.6238 113.942Z" fill="#9F616A"/>
<path d="M95.0533 112.488C96.2218 112.488 97.1691 111.975 97.1691 111.342C97.1691 110.709 96.2218 110.196 95.0533 110.196C93.8848 110.196 92.9375 110.709 92.9375 111.342C92.9375 111.975 93.8848 112.488 95.0533 112.488Z" fill="#6C63FF"/>
<path d="M94.2593 112.488C95.4279 112.488 96.3751 111.975 96.3751 111.342C96.3751 110.709 95.4279 110.196 94.2593 110.196C93.0908 110.196 92.1436 110.709 92.1436 111.342C92.1436 111.975 93.0908 112.488 94.2593 112.488Z" fill="#6C63FF"/>
<path d="M103.516 112.752C104.685 112.752 105.632 112.239 105.632 111.606C105.632 110.973 104.685 110.46 103.516 110.46C102.348 110.46 101.4 110.973 101.4 111.606C101.4 112.239 102.348 112.752 103.516 112.752Z" fill="#6C63FF"/>
<path d="M98.6675 112.488C99.8361 112.488 100.783 111.975 100.783 111.342C100.783 110.709 99.8361 110.196 98.6675 110.196C97.499 110.196 96.5518 110.709 96.5518 111.342C96.5518 111.975 97.499 112.488 98.6675 112.488Z" fill="#6C63FF"/>
<path d="M102.282 112.488C103.45 112.488 104.398 111.975 104.398 111.342C104.398 110.709 103.45 110.196 102.282 110.196C101.113 110.196 100.166 110.709 100.166 111.342C100.166 111.975 101.113 112.488 102.282 112.488Z" fill="#6C63FF"/>
<path d="M105.015 110.637C101.191 111.934 96.9004 111.934 92.1436 110.637V110.458C92.1428 109.109 92.6606 107.812 93.5898 106.834C94.5191 105.856 95.7888 105.273 97.1361 105.205C98.2701 105.148 99.4062 105.15 100.54 105.21C101.752 105.28 102.891 105.812 103.723 106.696C104.556 107.58 105.018 108.749 105.015 109.963V110.637Z" fill="#3F3D56"/>
<path d="M103.138 115.494C100.312 115.779 97.4647 115.779 94.6388 115.494C93.9685 115.428 93.3465 115.115 92.8937 114.617C92.4409 114.118 92.1895 113.469 92.1885 112.796H105.588C105.587 113.469 105.336 114.118 104.883 114.617C104.43 115.115 103.808 115.428 103.138 115.494Z" fill="#3F3D56"/>
<path d="M96.8164 106.847C96.5091 106.975 96.1796 107.041 95.8467 107.041C95.5138 107.041 95.1842 106.975 94.877 106.847C95.1842 106.719 95.5138 106.653 95.8467 106.653C96.1796 106.653 96.5091 106.719 96.8164 106.847Z" fill="#D0CDE1"/>
<path d="M98.7559 107.64C98.4486 107.768 98.119 107.834 97.7862 107.834C97.4533 107.834 97.1237 107.768 96.8164 107.64C97.1237 107.512 97.4533 107.446 97.7862 107.446C98.119 107.446 98.4486 107.512 98.7559 107.64Z" fill="#D0CDE1"/>
<path d="M98.9317 106.23C98.6244 106.358 98.2948 106.424 97.9619 106.424C97.629 106.424 97.2995 106.358 96.9922 106.23C97.2995 106.102 97.629 106.036 97.9619 106.036C98.2948 106.036 98.6244 106.102 98.9317 106.23Z" fill="#D0CDE1"/>
<path d="M102.547 106.23C102.24 106.358 101.91 106.424 101.577 106.424C101.244 106.424 100.915 106.358 100.607 106.23C100.915 106.102 101.244 106.036 101.577 106.036C101.91 106.036 102.24 106.102 102.547 106.23Z" fill="#D0CDE1"/>
<path d="M101.577 107.023C101.27 107.151 100.94 107.217 100.607 107.217C100.275 107.217 99.945 107.151 99.6377 107.023C99.945 106.895 100.275 106.829 100.607 106.829C100.94 106.829 101.27 106.895 101.577 107.023Z" fill="#D0CDE1"/>
<path d="M163.111 110.485L163.143 111.199L163.185 112.124C163.185 112.124 158.934 112.364 158.077 113.269C158.057 113.289 158.039 113.31 158.022 113.332L156.32 112.959L156.315 112.121C156.315 112.121 156.339 112.108 156.385 112.083C156.395 112.078 156.408 112.071 156.421 112.064C158.505 111.044 160.791 110.504 163.111 110.485Z" fill="#6C63FF"/>
<path opacity="0.1" d="M163.11 110.485L163.143 111.199C161.257 111.257 157.69 112.381 157.69 112.381L156.384 112.083C158.477 111.049 160.776 110.503 163.11 110.485Z" fill="black"/>
<path opacity="0.1" d="M156.421 112.064L157.691 112.381L158.077 113.269C158.057 113.289 158.039 113.31 158.022 113.332L156.32 112.959L156.315 112.121C156.315 112.121 156.339 112.108 156.385 112.083C156.395 112.078 156.408 112.071 156.421 112.064Z" fill="white"/>
<path d="M111.732 113.48L111.765 114.193L111.806 115.119C111.806 115.119 107.555 115.359 106.698 116.264C106.678 116.283 106.66 116.304 106.644 116.326L104.941 115.954L104.937 115.115C104.937 115.115 104.96 115.102 105.006 115.077C105.016 115.072 105.029 115.065 105.042 115.058C107.126 114.038 109.412 113.499 111.732 113.48Z" fill="#6C63FF"/>
<path opacity="0.1" d="M111.732 113.48L111.765 114.193C109.88 114.251 106.312 115.375 106.312 115.375L105.006 115.077C107.099 114.044 109.398 113.498 111.732 113.48Z" fill="black"/>
<path opacity="0.1" d="M105.042 115.058L106.312 115.375L106.698 116.264C106.678 116.283 106.66 116.304 106.644 116.326L104.941 115.954L104.937 115.115C104.937 115.115 104.96 115.102 105.006 115.077C105.016 115.072 105.029 115.065 105.042 115.058Z" fill="white"/>
<path d="M188.714 89.1145C188.351 88.7522 187.926 88.4585 187.459 88.2475V79.2974C187.459 79.1925 187.417 79.0918 187.343 79.0176C187.269 78.9434 187.168 78.9017 187.063 78.9017H184.847C184.742 78.9017 184.641 78.9434 184.567 79.0176C184.493 79.0918 184.451 79.1925 184.451 79.2974V88.0758C183.65 88.3415 182.953 88.8526 182.459 89.5368C181.965 90.2209 181.699 91.0432 181.698 91.8871V111.086C181.698 111.317 181.744 111.546 181.832 111.76C181.921 111.973 182.05 112.167 182.214 112.33C182.377 112.494 182.571 112.623 182.785 112.712C182.998 112.8 183.227 112.846 183.458 112.846H188.205C188.67 112.846 189.115 112.661 189.444 112.333C189.772 112.004 189.957 111.559 189.957 111.094V92.1133C189.958 91.5563 189.848 91.0045 189.635 90.4899C189.422 89.9752 189.109 89.5078 188.714 89.1145Z" fill="#3F3D56"/>
<path d="M189.957 94.7014H181.698V105.608H189.957V94.7014Z" fill="#6C63FF"/>
<path d="M187.637 79.5133H187.459V79.2974C187.459 79.1925 187.417 79.0918 187.343 79.0176C187.269 78.9434 187.168 78.9017 187.063 78.9017H184.847C184.742 78.9017 184.641 78.9434 184.567 79.0176C184.493 79.0918 184.451 79.1925 184.451 79.2974V79.5133H184.272V80.4307H184.451V85.1197H187.459V80.4307H187.637V79.5133Z" fill="#6C63FF"/>
<path d="M122.587 96.8829C122.369 96.4165 122.196 96.0867 122.136 95.9731C118.429 96.8877 115.956 96.1149 115.565 95.9782C115.375 96.3383 114.184 98.6402 113.703 100.847C113.268 102.838 113.52 104.172 114.453 104.814L114.48 104.833L114.486 104.837C115.516 105.515 116.498 106.116 117.405 106.622C117.527 106.69 117.642 106.753 117.75 106.812L117.762 106.818L117.77 106.828C117.894 106.985 118.01 107.149 118.117 107.318C118.318 107.598 118.439 107.927 118.469 108.27V118.157L118.407 118.158C116.042 118.207 114.579 118.607 114.579 118.951C114.579 119.328 116.334 119.748 118.852 119.748C121.37 119.748 123.125 119.328 123.125 118.951C123.125 118.613 121.687 118.214 119.362 118.16L119.299 118.159L119.358 109.013C119.359 108.394 119.503 107.783 119.779 107.229C119.826 107.136 119.876 107.045 119.929 106.959C119.971 106.891 120.015 106.824 120.061 106.76L120.07 106.749L120.082 106.742C120.199 106.678 120.323 106.609 120.453 106.535L120.469 106.527C121.327 106.042 122.252 105.474 123.218 104.837C124.08 104.269 124.381 103.12 124.11 101.423C123.853 99.8043 123.14 98.0606 122.587 96.8829Z" fill="#D0CDE1"/>
<path d="M122.809 104.63C121.796 105.297 120.96 105.798 120.321 106.158H120.32C119.387 106.095 118.45 106.121 117.523 106.237C116.867 105.871 115.983 105.347 114.895 104.63C114.885 104.623 114.874 104.616 114.864 104.609V104.608C113.866 103.922 113.842 102.469 114.166 100.982C114.992 100.891 116.309 100.931 118.078 101.563C120.173 102.311 122.366 101.888 123.636 101.503C123.845 102.814 123.718 104.031 122.809 104.63Z" fill="#6C63FF"/>
<path d="M116.788 100.445C116.946 100.445 117.074 100.316 117.074 100.158C117.074 99.9997 116.946 99.8713 116.788 99.8713C116.629 99.8713 116.501 99.9997 116.501 100.158C116.501 100.316 116.629 100.445 116.788 100.445Z" fill="#6C63FF"/>
<path d="M115.985 103.082C116.143 103.082 116.272 102.954 116.272 102.795C116.272 102.637 116.143 102.509 115.985 102.509C115.827 102.509 115.698 102.637 115.698 102.795C115.698 102.954 115.827 103.082 115.985 103.082Z" fill="white"/>
<path d="M117.476 101.018C117.571 101.018 117.648 100.941 117.648 100.846C117.648 100.751 117.571 100.674 117.476 100.674C117.381 100.674 117.304 100.751 117.304 100.846C117.304 100.941 117.381 101.018 117.476 101.018Z" fill="#6C63FF"/>
<path d="M118.164 104.286C118.259 104.286 118.336 104.209 118.336 104.114C118.336 104.019 118.259 103.942 118.164 103.942C118.069 103.942 117.992 104.019 117.992 104.114C117.992 104.209 118.069 104.286 118.164 104.286Z" fill="white"/>
<path d="M116.96 104.458C117.055 104.458 117.132 104.381 117.132 104.286C117.132 104.191 117.055 104.114 116.96 104.114C116.865 104.114 116.788 104.191 116.788 104.286C116.788 104.381 116.865 104.458 116.96 104.458Z" fill="white"/>
<path d="M120.458 98.7249C120.553 98.7249 120.63 98.6479 120.63 98.5529C120.63 98.4579 120.553 98.3809 120.458 98.3809C120.363 98.3809 120.286 98.4579 120.286 98.5529C120.286 98.6479 120.363 98.7249 120.458 98.7249Z" fill="#6C63FF"/>
<path d="M136.038 87.5621C135.819 87.0957 135.647 86.7659 135.586 86.6523C131.879 87.5669 129.406 86.7941 129.016 86.6574C128.825 87.0175 127.634 89.3194 127.153 91.5264C126.718 93.517 126.97 94.8515 127.903 95.4929L127.931 95.5125L127.937 95.5166C128.966 96.1947 129.948 96.7952 130.855 97.3014C130.977 97.3694 131.092 97.4326 131.2 97.4909L131.212 97.4972L131.22 97.5076C131.345 97.6644 131.461 97.8279 131.567 97.9973C131.768 98.2774 131.889 98.6062 131.92 98.9493V108.836L131.857 108.838C129.492 108.886 128.029 109.287 128.029 109.63C128.029 110.007 129.784 110.427 132.302 110.427C134.821 110.427 136.576 110.007 136.576 109.63C136.576 109.292 135.137 108.893 132.812 108.84L132.75 108.838L132.808 99.6924C132.809 99.0732 132.953 98.4626 133.229 97.908C133.276 97.8148 133.326 97.7241 133.379 97.6387C133.421 97.5699 133.466 97.5028 133.512 97.4395L133.52 97.4279L133.533 97.421C133.649 97.3574 133.773 97.2885 133.904 97.2143L133.919 97.2059C134.777 96.7213 135.702 96.153 136.668 95.5164C137.531 94.948 137.831 93.7991 137.561 92.1018C137.303 90.4835 136.59 88.7398 136.038 87.5621Z" fill="#D0CDE1"/>
<path d="M136.259 95.3092C135.246 95.9765 134.41 96.477 133.771 96.8377H133.77C132.837 96.774 131.901 96.8003 130.973 96.9162C130.317 96.5504 129.433 96.0258 128.345 95.3092C128.335 95.3023 128.325 95.2954 128.314 95.288V95.2874C127.316 94.6011 127.292 93.1477 127.616 91.6617C128.442 91.5699 129.759 91.6101 131.528 92.2419C133.623 92.9901 135.816 92.567 137.087 92.1822C137.295 93.4934 137.168 94.71 136.259 95.3092Z" fill="#6C63FF"/>
<path d="M130.238 91.1239C130.396 91.1239 130.525 90.9955 130.525 90.8372C130.525 90.6789 130.396 90.5505 130.238 90.5505C130.08 90.5505 129.951 90.6789 129.951 90.8372C129.951 90.9955 130.08 91.1239 130.238 91.1239Z" fill="#6C63FF"/>
<path d="M129.435 93.7613C129.594 93.7613 129.722 93.633 129.722 93.4747C129.722 93.3163 129.594 93.188 129.435 93.188C129.277 93.188 129.148 93.3163 129.148 93.4747C129.148 93.633 129.277 93.7613 129.435 93.7613Z" fill="white"/>
<path d="M130.926 91.6973C131.021 91.6973 131.098 91.6203 131.098 91.5253C131.098 91.4303 131.021 91.3533 130.926 91.3533C130.831 91.3533 130.754 91.4303 130.754 91.5253C130.754 91.6203 130.831 91.6973 130.926 91.6973Z" fill="#6C63FF"/>
<path d="M131.614 94.9651C131.709 94.9651 131.786 94.8881 131.786 94.7931C131.786 94.6981 131.709 94.6211 131.614 94.6211C131.519 94.6211 131.442 94.6981 131.442 94.7931C131.442 94.8881 131.519 94.9651 131.614 94.9651Z" fill="white"/>
<path d="M130.41 95.1372C130.505 95.1372 130.582 95.0602 130.582 94.9652C130.582 94.8702 130.505 94.7932 130.41 94.7932C130.315 94.7932 130.238 94.8702 130.238 94.9652C130.238 95.0602 130.315 95.1372 130.41 95.1372Z" fill="white"/>
<path d="M133.908 89.4041C134.003 89.4041 134.08 89.3271 134.08 89.2321C134.08 89.1371 134.003 89.0601 133.908 89.0601C133.813 89.0601 133.736 89.1371 133.736 89.2321C133.736 89.3271 133.813 89.4041 133.908 89.4041Z" fill="#6C63FF"/>
</g>
<defs>
<clipPath id="clip0_119_1316">
<rect width="230" height="178" fill="white"/>
</clipPath>
</defs>
</svg>
