<svg width="48" height="49" viewBox="0 0 48 49" fill="none" xmlns="http://www.w3.org/2000/svg">
<path d="M21.6501 32.9625L29.7631 24.849C30.0804 24.5324 30.4474 24.3824 30.8641 24.399C31.2807 24.4157 31.6444 24.5824 31.955 24.899C32.266 25.2154 32.4215 25.5842 32.4215 26.0055C32.4215 26.4265 32.2677 26.7854 31.9601 27.082L22.8435 36.186C22.5022 36.526 22.1041 36.696 21.6491 36.696C21.1941 36.696 20.7966 36.526 20.4566 36.186L15.7521 31.532C15.4364 31.2347 15.2786 30.8754 15.2786 30.454C15.2786 30.0327 15.4347 29.664 15.7471 29.348C16.0597 29.032 16.4237 28.8824 16.8391 28.899C17.2544 28.9157 17.6207 29.0662 17.9381 29.3505L21.6501 32.9625ZM9.10755 44.983C8.18755 44.983 7.38988 44.6452 6.71455 43.9695C6.03888 43.2942 5.70105 42.4965 5.70105 41.5765V10.7915C5.70105 9.86821 6.03888 9.06771 6.71455 8.39004C7.38988 7.71204 8.18755 7.37305 9.10755 7.37305H12.2501V6.08054C12.2501 5.60221 12.416 5.19804 12.7481 4.86804C13.0804 4.53805 13.4844 4.37305 13.9601 4.37305C14.4497 4.37305 14.8627 4.53805 15.1991 4.86804C15.5354 5.19804 15.7036 5.60221 15.7036 6.08054V7.37305H32.2965V6.08054C32.2965 5.60221 32.4627 5.19804 32.795 4.86804C33.1271 4.53805 33.5309 4.37305 34.0065 4.37305C34.4965 4.37305 34.9095 4.53805 35.2455 4.86804C35.5819 5.19804 35.75 5.60221 35.75 6.08054V7.37305H38.8925C39.8159 7.37305 40.6164 7.71204 41.294 8.39004C41.972 9.06771 42.311 9.86821 42.311 10.7915V41.5765C42.311 42.4965 41.972 43.2942 41.294 43.9695C40.6164 44.6452 39.8159 44.983 38.8925 44.983H9.10755ZM9.10755 41.5765H38.8925V20.184H9.10755V41.5765ZM9.10755 17.184H38.8925V10.7915H9.10755V17.184Z" fill="#0D0604"/>
</svg>
