<svg width="48" height="49" viewBox="0 0 48 49" fill="none" xmlns="http://www.w3.org/2000/svg">
<path d="M4.73597 20.147L12.3535 6.45998C12.5405 6.15998 12.7581 5.94398 13.0065 5.81198C13.2545 5.68031 13.5303 5.61448 13.834 5.61448C14.1373 5.61448 14.4126 5.68031 14.66 5.81198C14.9073 5.94398 15.1246 6.15998 15.312 6.45998L22.9175 20.147C23.1081 20.4353 23.1931 20.7296 23.1725 21.03C23.1518 21.33 23.0673 21.6073 22.919 21.862C22.7766 22.1106 22.5763 22.3138 22.318 22.4715C22.0596 22.6291 21.7663 22.708 21.438 22.708H6.21497C5.8853 22.708 5.59047 22.6283 5.33047 22.469C5.0708 22.3096 4.86747 22.1043 4.72047 21.853C4.57347 21.602 4.49164 21.3268 4.47497 21.0275C4.4583 20.7278 4.5453 20.4343 4.73597 20.147ZM13.8945 43.258C11.6091 43.258 9.65264 42.4458 8.02497 40.8215C6.3973 39.1968 5.58347 37.244 5.58347 34.963C5.58347 32.6473 6.39664 30.6846 8.02297 29.075C9.6493 27.465 11.6045 26.66 13.8885 26.66C16.1721 26.66 18.1253 27.4726 19.748 29.098C21.3703 30.723 22.1815 32.6766 22.1815 34.959C22.1815 37.2443 21.37 39.1988 19.747 40.8225C18.1243 42.4461 16.1735 43.258 13.8945 43.258ZM13.894 39.8395C15.2546 39.8395 16.4083 39.3678 17.355 38.4245C18.3016 37.4811 18.775 36.326 18.775 34.959C18.775 33.5983 18.3008 32.4428 17.3525 31.4925C16.4045 30.5418 15.2498 30.0665 13.8885 30.0665C12.5241 30.0665 11.3686 30.5418 10.422 31.4925C9.4753 32.4428 9.00197 33.6001 9.00197 34.9645C9.00197 36.3288 9.4748 37.4825 10.4205 38.4255C11.3658 39.3681 12.5236 39.8395 13.894 39.8395ZM9.12397 19.3015H18.5415L13.8325 10.836L9.12397 19.3015ZM26.0715 41.5545V28.3635C26.0715 27.8825 26.2353 27.4783 26.563 27.151C26.8903 26.8236 27.2943 26.66 27.775 26.66H40.9665C41.4471 26.66 41.8511 26.8236 42.1785 27.151C42.5058 27.4783 42.6695 27.8825 42.6695 28.3635V41.5545C42.6695 42.0355 42.5058 42.4396 42.1785 42.767C41.8511 43.0943 41.4471 43.258 40.9665 43.258H27.775C27.2943 43.258 26.8903 43.0943 26.563 42.767C26.2353 42.4396 26.0715 42.0355 26.0715 41.5545ZM29.49 39.8395H39.263V30.0665H29.49V39.8395ZM33.289 21.7885L30.2535 19.1905C27.8655 17.1695 26.2381 15.5781 25.3715 14.4165C24.5048 13.2548 24.0715 11.9758 24.0715 10.5795C24.0715 8.99181 24.6165 7.66348 25.7065 6.59448C26.7965 5.52515 28.1646 4.99048 29.811 4.99048C30.6913 4.99048 31.5375 5.19465 32.3495 5.60298C33.1615 6.01098 33.8391 6.59814 34.3825 7.36448C34.9191 6.59814 35.5946 6.01098 36.409 5.60298C37.223 5.19465 38.0715 4.99048 38.9545 4.99048C40.6008 4.99048 41.9668 5.52515 43.0525 6.59448C44.1385 7.66348 44.6815 8.99181 44.6815 10.5795C44.6815 11.9758 44.2481 13.2548 43.3815 14.4165C42.5148 15.5781 40.8916 17.1695 38.512 19.1905L35.464 21.7885C35.148 22.0535 34.7851 22.186 34.3755 22.186C33.9658 22.186 33.6036 22.0535 33.289 21.7885ZM34.3825 18.184C37.1521 15.8906 38.9933 14.2573 39.906 13.284C40.8186 12.3106 41.275 11.4705 41.275 10.7635C41.275 10.0635 41.0703 9.49798 40.661 9.06698C40.252 8.63631 39.6926 8.42098 38.983 8.42098C38.56 8.42098 38.1491 8.53448 37.7505 8.76148C37.3518 8.98881 36.8365 9.37598 36.2045 9.92298L34.3765 11.597L32.561 9.92298C31.94 9.36398 31.424 8.97381 31.013 8.75248C30.602 8.53148 30.1918 8.42098 29.7825 8.42098C29.0681 8.42098 28.5075 8.63631 28.1005 9.06698C27.6935 9.49798 27.49 10.0635 27.49 10.7635C27.49 11.4698 27.9448 12.309 28.8545 13.281C29.7638 14.253 31.6065 15.8873 34.3825 18.184Z" fill="#0D0604"/>
</svg>
